<?xml version="1.0" encoding="UTF-8"?><svg id="Layer_1" xmlns="http://www.w3.org/2000/svg" viewBox="0 0 199 235.6"><defs><style>.cls-1{fill:#ff931e;stroke-width:0px;}</style></defs><path class="cls-1" d="m108.5,84.1c1,0,1.6.4,1.9,1.3.4.9.3,1.7-.5,2.4l-56.1,52.9,68.7,81.7c.5.7.6,1.5.2,2.2-.3.8-.9,1.3-1.8,1.3h-30.1c-.7,0-1.3-.3-1.6-.8l-55.1-65.6-6.8,6.5v57.9c0,1.4-.7,2-2.1,2H2.1c-1.4,0-2.1-.7-2.1-2V2C0,.7.7,0,2.1,0h23.1c1.4,0,2.1.7,2.1,2v126.2l46.4-43.6c.3-.4.8-.6,1.4-.6h33.5Z"/><path class="cls-1" d="m191.1,100.1c1.4,0,2.1.7,2.1,2v22.5c0,1.4-.7,2-2.1,2h-29.9v106.9c0,1.4-.7,2-2.1,2h-22.8c-1.4,0-2.1-.7-2.1-2v-106.9h-20.6c-1.4,0-2.1-.7-2.1-2v-22.5c0-1.4.7-2,2.1-2h20.6v-38.7c0-8.6,1.9-16.3,5.7-23.1,3.9-6.8,9.3-11.9,16.1-15.3,6.5-3.3,13.4-4.5,20.9-3.6,7.3.7,14.3,3.4,21,7.9,1.3.8,1.4,1.8.5,3l-13.5,17.9c-.7,1.1-1.7,1.2-2.9.5-5.2-3.3-9.8-3.9-13.9-1.9-4.7,2.3-7,7.2-7,14.6v38.7h29.9Z"/></svg>